<svg width="42" height="41" viewBox="0 0 42 41" fill="none" xmlns="http://www.w3.org/2000/svg">
<path d="M15.8747 22.2084H26.1247C26.6087 22.2084 27.0147 22.0444 27.3427 21.7164C27.6707 21.3884 27.8341 20.9829 27.833 20.5C27.8319 20.0171 27.6679 19.6117 27.341 19.2837C27.0141 18.9557 26.6087 18.7917 26.1247 18.7917H15.8747C15.3906 18.7917 14.9852 18.9557 14.6583 19.2837C14.3315 19.6117 14.1675 20.0171 14.1663 20.5C14.1652 20.9829 14.3292 21.3889 14.6583 21.7181C14.9875 22.0472 15.3929 22.2106 15.8747 22.2084ZM15.8747 27.3334H26.1247C26.6087 27.3334 27.0147 27.1694 27.3427 26.8414C27.6707 26.5134 27.8341 26.1079 27.833 25.625C27.8319 25.1421 27.6679 24.7367 27.341 24.4087C27.0141 24.0807 26.6087 23.9167 26.1247 23.9167H15.8747C15.3906 23.9167 14.9852 24.0807 14.6583 24.4087C14.3315 24.7367 14.1675 25.1421 14.1663 25.625C14.1652 26.1079 14.3292 26.5139 14.6583 26.8431C14.9875 27.1722 15.3929 27.3356 15.8747 27.3334ZM15.8747 32.4584H20.9997C21.4837 32.4584 21.8897 32.2944 22.2177 31.9664C22.5457 31.6384 22.7091 31.2329 22.708 30.75C22.7069 30.2671 22.5429 29.8617 22.216 29.5337C21.8891 29.2057 21.4837 29.0417 20.9997 29.0417H15.8747C15.3906 29.0417 14.9852 29.2057 14.6583 29.5337C14.3315 29.8617 14.1675 30.2671 14.1663 30.75C14.1652 31.2329 14.3292 31.6389 14.6583 31.9681C14.9875 32.2972 15.3929 32.4606 15.8747 32.4584ZM10.7497 37.5834C9.81009 37.5834 9.00604 37.2491 8.33751 36.5806C7.66898 35.912 7.33415 35.1074 7.33301 34.1667V6.83335C7.33301 5.89377 7.66784 5.08971 8.33751 4.42119C9.00717 3.75266 9.81123 3.41783 10.7497 3.41669H23.007C23.4625 3.41669 23.897 3.5021 24.3104 3.67294C24.7238 3.84377 25.0866 4.08578 25.3986 4.39898L33.684 12.6844C33.9972 12.9976 34.2393 13.3609 34.4101 13.7743C34.5809 14.1877 34.6663 14.6216 34.6663 15.0761V34.1667C34.6663 35.1063 34.3321 35.9109 33.6635 36.5806C32.995 37.2502 32.1904 37.5845 31.2497 37.5834H10.7497ZM31.2497 15.375H25.2705C24.5587 15.375 23.954 15.1262 23.4563 14.6285C22.9586 14.1308 22.7091 13.5255 22.708 12.8125V6.83335H10.7497V34.1667H31.2497V15.375Z" fill="url(#paint0_linear_333_127)"/>
<defs>
<linearGradient id="paint0_linear_333_127" x1="7.33301" y1="20.5" x2="34.6663" y2="20.5" gradientUnits="userSpaceOnUse">
<stop stop-color="#EBDB2F"/>
<stop offset="1" stop-color="#E66F00"/>
</linearGradient>
</defs>
</svg>
