<svg width="42" height="41" viewBox="0 0 42 41" fill="none" xmlns="http://www.w3.org/2000/svg">
<path d="M12.4587 14.5208L15.8753 11.1041L12.4587 7.68748L9.04199 11.1041L12.4587 14.5208ZM7.33366 23.9166C6.39408 23.9166 5.59002 23.5824 4.92149 22.9139C4.25296 22.2453 3.91813 21.4407 3.91699 20.5V5.12498C3.91699 4.1854 4.25183 3.38134 4.92149 2.71281C5.59116 2.04429 6.39521 1.70945 7.33366 1.70831H34.667C35.6066 1.70831 36.4112 2.04315 37.0809 2.71281C37.7505 3.38248 38.0848 4.18653 38.0837 5.12498V20.5C38.0837 21.4396 37.7494 22.2442 37.0809 22.9139C36.4123 23.5835 35.6077 23.9178 34.667 23.9166H29.1576C29.3285 23.3472 29.4423 22.7778 29.4993 22.2083C29.5562 21.6389 29.5562 21.0694 29.4993 20.5H34.667V5.12498H7.33366V20.5H12.5014C12.4444 21.0694 12.4444 21.6389 12.5014 22.2083C12.5583 22.7778 12.6722 23.3472 12.843 23.9166H7.33366ZM28.6878 11.9583C29.3996 11.9583 30.005 11.7095 30.5038 11.2118C31.0026 10.7141 31.2515 10.1088 31.2503 9.39581C31.2492 8.68287 31.0003 8.07812 30.5038 7.58156C30.0072 7.08501 29.4019 6.83559 28.6878 6.83331C27.9737 6.83103 27.369 7.08045 26.8736 7.58156C26.3782 8.08267 26.1287 8.68742 26.1253 9.39581C26.1219 10.1042 26.3713 10.7095 26.8736 11.2118C27.3758 11.714 27.9806 11.9629 28.6878 11.9583ZM9.04199 39.2916V35.7041C9.04199 34.7076 9.31988 33.7823 9.87566 32.9281C10.4314 32.0739 11.1643 31.4333 12.0743 31.0062C13.4694 30.3514 14.9215 29.8605 16.4305 29.5336C17.9396 29.2068 19.4628 29.0428 21.0003 29.0416C22.5378 29.0405 24.0611 29.2045 25.5701 29.5336C27.0791 29.8628 28.5312 30.3536 29.9264 31.0062C30.8375 31.4333 31.5709 32.0739 32.1267 32.9281C32.6825 33.7823 32.9598 34.7076 32.9587 35.7041V39.2916H9.04199ZM12.4587 35.875H29.542V35.7041C29.542 35.3625 29.4423 35.0493 29.243 34.7646C29.0437 34.4798 28.7875 34.2663 28.4743 34.1239C27.2785 33.583 26.0541 33.1701 24.8014 32.8854C23.5486 32.6007 22.2816 32.4583 21.0003 32.4583C19.7191 32.4583 18.4521 32.6007 17.1993 32.8854C15.9465 33.1701 14.7222 33.583 13.5264 34.1239C13.2132 34.2663 12.9569 34.4798 12.7576 34.7646C12.5583 35.0493 12.4587 35.3625 12.4587 35.7041V35.875ZM21.0003 27.3333C19.3489 27.3333 17.9396 26.7496 16.7722 25.5823C15.6048 24.4149 15.0212 23.0055 15.0212 21.3541C15.0212 19.7028 15.6048 18.2934 16.7722 17.126C17.9396 15.9587 19.3489 15.375 21.0003 15.375C22.6517 15.375 24.0611 15.9587 25.2285 17.126C26.3958 18.2934 26.9795 19.7028 26.9795 21.3541C26.9795 23.0055 26.3958 24.4149 25.2285 25.5823C24.0611 26.7496 22.6517 27.3333 21.0003 27.3333ZM21.0003 23.9166C21.7121 23.9166 22.3174 23.6678 22.8163 23.1701C23.3151 22.6724 23.564 22.0671 23.5628 21.3541C23.5617 20.6412 23.3128 20.0364 22.8163 19.5399C22.3197 19.0433 21.7144 18.7939 21.0003 18.7916C20.2862 18.7894 19.6815 19.0388 19.1861 19.5399C18.6907 20.041 18.4412 20.6458 18.4378 21.3541C18.4344 22.0625 18.6838 22.6679 19.1861 23.1701C19.6883 23.6724 20.2931 23.9212 21.0003 23.9166Z" fill="url(#paint0_linear_333_25)"/>
<defs>
<linearGradient id="paint0_linear_333_25" x1="3.91699" y1="20.5" x2="38.0837" y2="20.5" gradientUnits="userSpaceOnUse">
<stop stop-color="#EBDB2F"/>
<stop offset="1" stop-color="#E66F00"/>
</linearGradient>
</defs>
</svg>
